# xmcd
#
# Track frame offsets: 
#        150
#        18400
#        40354
#        63294
#        89205
#        109036
#        133417
#        153244
#        170524
#        196030
#        215010
#        238516
#
# Disc length: 3409 seconds
#
# Revision: 0
# Processed by: cddbd v1.5.2PL0 Copyright (c) Steve Scherf et al.
# Submitted via: ExactAudioCopy v1.0b3
#
DISCID=a80d4f0c
DTITLE=The Dr. Izzy Band - Blind and Blues Bound
DYEAR=2013
DGENRE=Blues
TTITLE0=Matches Don't Burn Memories (feat. James Cotton)
TTITLE1=Soul Dance
TTITLE2=Been a Long Time Comin'
TTITLE3=Earth Bound
TTITLE4=Old Black Crow (feat. Otis Taylor)
TTITLE5=One Last Walk
TTITLE6=Mama Said
TTITLE7=Passion's Not a Crime
TTITLE8=Dirt Bed
TTITLE9=Hang Tough
TTITLE10=It's Been Real
TTITLE11=Your Redeemer
EXTD=
EXTT0=
EXTT1=
EXTT2=
EXTT3=
EXTT4=
EXTT5=
EXTT6=
EXTT7=
EXTT8=
EXTT9=
EXTT10=
EXTT11=
PLAYORDER=
